# xmcd CD database file
# Generated: Fri Dec 19 14:29:45 2003 by KSCD
# 
# Track frame offsets:
#       150
#       10354
#       24385
#       36989
#       48305
#       60949
#       72660
#       88162
#       102109
#       116706
#       133429
#       154061
#       169164
#       186984
#       199050
#       212625
#       228372
#       240793
#       253662
#       269653
#       283053
#       298431
#
# Disc length: 4201 seconds
#
# Revision: 2
# Processed by: cddbd v1.4PL0 Copyright (c) Steve Scherf et al.
# Submitted via: Kscd 1.3.3
#
DISCID=51106716
DTITLE=Rhonda Vincent - Rhonda Vincent
DYEAR=1900
DGENRE=
TTITLE0=Rhonda Vincent
TTITLE1=
TTITLE2=
TTITLE3=
TTITLE4=
TTITLE5=
TTITLE6=
TTITLE7=
TTITLE8=
TTITLE9=
TTITLE10=
TTITLE11=
TTITLE12=
TTITLE13=
TTITLE14=
TTITLE15=
TTITLE16=
TTITLE17=
TTITLE18=
TTITLE19=
TTITLE20=
TTITLE21=
EXTD=
EXTT0=
EXTT1=
EXTT2=
EXTT3=
EXTT4=
EXTT5=
EXTT6=
EXTT7=
EXTT8=
EXTT9=
EXTT10=
EXTT11=
EXTT12=
EXTT13=
EXTT14=
EXTT15=
EXTT16=
EXTT17=
EXTT18=
EXTT19=
EXTT20=
EXTT21=
PLAYORDER=
